%TF.GenerationSoftware,KiCad,Pcbnew,(6.0.9)*%
%TF.CreationDate,2022-11-13T11:09:17+10:30*%
%TF.ProjectId,TEC-SC IO Port,5445432d-5343-4204-994f-20506f72742e,rev?*%
%TF.SameCoordinates,Original*%
%TF.FileFunction,Legend,Bot*%
%TF.FilePolarity,Positive*%
%FSLAX46Y46*%
G04 Gerber Fmt 4.6, Leading zero omitted, Abs format (unit mm)*
G04 Created by KiCad (PCBNEW (6.0.9)) date 2022-11-13 11:09:17*
%MOMM*%
%LPD*%
G01*
G04 APERTURE LIST*
%ADD10C,0.150000*%
%ADD11C,0.120000*%
G04 APERTURE END LIST*
D10*
X110852380Y-42680952D02*
X109852380Y-42680952D01*
X110852380Y-43109523D02*
X110328571Y-43109523D01*
X110233333Y-43061904D01*
X110185714Y-42966666D01*
X110185714Y-42823809D01*
X110233333Y-42728571D01*
X110280952Y-42680952D01*
X110185714Y-43442857D02*
X110185714Y-43823809D01*
X109852380Y-43585714D02*
X110709523Y-43585714D01*
X110804761Y-43633333D01*
X110852380Y-43728571D01*
X110852380Y-43823809D01*
X110185714Y-44014285D02*
X110185714Y-44395238D01*
X109852380Y-44157142D02*
X110709523Y-44157142D01*
X110804761Y-44204761D01*
X110852380Y-44300000D01*
X110852380Y-44395238D01*
X110185714Y-44728571D02*
X111185714Y-44728571D01*
X110233333Y-44728571D02*
X110185714Y-44823809D01*
X110185714Y-45014285D01*
X110233333Y-45109523D01*
X110280952Y-45157142D01*
X110376190Y-45204761D01*
X110661904Y-45204761D01*
X110757142Y-45157142D01*
X110804761Y-45109523D01*
X110852380Y-45014285D01*
X110852380Y-44823809D01*
X110804761Y-44728571D01*
X110804761Y-45585714D02*
X110852380Y-45680952D01*
X110852380Y-45871428D01*
X110804761Y-45966666D01*
X110709523Y-46014285D01*
X110661904Y-46014285D01*
X110566666Y-45966666D01*
X110519047Y-45871428D01*
X110519047Y-45728571D01*
X110471428Y-45633333D01*
X110376190Y-45585714D01*
X110328571Y-45585714D01*
X110233333Y-45633333D01*
X110185714Y-45728571D01*
X110185714Y-45871428D01*
X110233333Y-45966666D01*
X110757142Y-46442857D02*
X110804761Y-46490476D01*
X110852380Y-46442857D01*
X110804761Y-46395238D01*
X110757142Y-46442857D01*
X110852380Y-46442857D01*
X110233333Y-46442857D02*
X110280952Y-46490476D01*
X110328571Y-46442857D01*
X110280952Y-46395238D01*
X110233333Y-46442857D01*
X110328571Y-46442857D01*
X109804761Y-47633333D02*
X111090476Y-46776190D01*
X109804761Y-48680952D02*
X111090476Y-47823809D01*
X110185714Y-49442857D02*
X110995238Y-49442857D01*
X111090476Y-49395238D01*
X111138095Y-49347619D01*
X111185714Y-49252380D01*
X111185714Y-49109523D01*
X111138095Y-49014285D01*
X110804761Y-49442857D02*
X110852380Y-49347619D01*
X110852380Y-49157142D01*
X110804761Y-49061904D01*
X110757142Y-49014285D01*
X110661904Y-48966666D01*
X110376190Y-48966666D01*
X110280952Y-49014285D01*
X110233333Y-49061904D01*
X110185714Y-49157142D01*
X110185714Y-49347619D01*
X110233333Y-49442857D01*
X110852380Y-49919047D02*
X110185714Y-49919047D01*
X109852380Y-49919047D02*
X109900000Y-49871428D01*
X109947619Y-49919047D01*
X109900000Y-49966666D01*
X109852380Y-49919047D01*
X109947619Y-49919047D01*
X110185714Y-50252380D02*
X110185714Y-50633333D01*
X109852380Y-50395238D02*
X110709523Y-50395238D01*
X110804761Y-50442857D01*
X110852380Y-50538095D01*
X110852380Y-50633333D01*
X110852380Y-50966666D02*
X109852380Y-50966666D01*
X110852380Y-51395238D02*
X110328571Y-51395238D01*
X110233333Y-51347619D01*
X110185714Y-51252380D01*
X110185714Y-51109523D01*
X110233333Y-51014285D01*
X110280952Y-50966666D01*
X110185714Y-52300000D02*
X110852380Y-52300000D01*
X110185714Y-51871428D02*
X110709523Y-51871428D01*
X110804761Y-51919047D01*
X110852380Y-52014285D01*
X110852380Y-52157142D01*
X110804761Y-52252380D01*
X110757142Y-52300000D01*
X110852380Y-52776190D02*
X109852380Y-52776190D01*
X110233333Y-52776190D02*
X110185714Y-52871428D01*
X110185714Y-53061904D01*
X110233333Y-53157142D01*
X110280952Y-53204761D01*
X110376190Y-53252380D01*
X110661904Y-53252380D01*
X110757142Y-53204761D01*
X110804761Y-53157142D01*
X110852380Y-53061904D01*
X110852380Y-52871428D01*
X110804761Y-52776190D01*
X110757142Y-53680952D02*
X110804761Y-53728571D01*
X110852380Y-53680952D01*
X110804761Y-53633333D01*
X110757142Y-53680952D01*
X110852380Y-53680952D01*
X110804761Y-54585714D02*
X110852380Y-54490476D01*
X110852380Y-54300000D01*
X110804761Y-54204761D01*
X110757142Y-54157142D01*
X110661904Y-54109523D01*
X110376190Y-54109523D01*
X110280952Y-54157142D01*
X110233333Y-54204761D01*
X110185714Y-54300000D01*
X110185714Y-54490476D01*
X110233333Y-54585714D01*
X110852380Y-55157142D02*
X110804761Y-55061904D01*
X110757142Y-55014285D01*
X110661904Y-54966666D01*
X110376190Y-54966666D01*
X110280952Y-55014285D01*
X110233333Y-55061904D01*
X110185714Y-55157142D01*
X110185714Y-55300000D01*
X110233333Y-55395238D01*
X110280952Y-55442857D01*
X110376190Y-55490476D01*
X110661904Y-55490476D01*
X110757142Y-55442857D01*
X110804761Y-55395238D01*
X110852380Y-55300000D01*
X110852380Y-55157142D01*
X110852380Y-55919047D02*
X110185714Y-55919047D01*
X110280952Y-55919047D02*
X110233333Y-55966666D01*
X110185714Y-56061904D01*
X110185714Y-56204761D01*
X110233333Y-56300000D01*
X110328571Y-56347619D01*
X110852380Y-56347619D01*
X110328571Y-56347619D02*
X110233333Y-56395238D01*
X110185714Y-56490476D01*
X110185714Y-56633333D01*
X110233333Y-56728571D01*
X110328571Y-56776190D01*
X110852380Y-56776190D01*
X109804761Y-57966666D02*
X111090476Y-57109523D01*
X110852380Y-58823809D02*
X110852380Y-58252380D01*
X110852380Y-58538095D02*
X109852380Y-58538095D01*
X109995238Y-58442857D01*
X110090476Y-58347619D01*
X110138095Y-58252380D01*
X110852380Y-59300000D02*
X110852380Y-59490476D01*
X110804761Y-59585714D01*
X110757142Y-59633333D01*
X110614285Y-59728571D01*
X110423809Y-59776190D01*
X110042857Y-59776190D01*
X109947619Y-59728571D01*
X109900000Y-59680952D01*
X109852380Y-59585714D01*
X109852380Y-59395238D01*
X109900000Y-59300000D01*
X109947619Y-59252380D01*
X110042857Y-59204761D01*
X110280952Y-59204761D01*
X110376190Y-59252380D01*
X110423809Y-59300000D01*
X110471428Y-59395238D01*
X110471428Y-59585714D01*
X110423809Y-59680952D01*
X110376190Y-59728571D01*
X110280952Y-59776190D01*
X109852380Y-60109523D02*
X109852380Y-60776190D01*
X110852380Y-60347619D01*
X110852380Y-61680952D02*
X110852380Y-61109523D01*
X110852380Y-61395238D02*
X109852380Y-61395238D01*
X109995238Y-61300000D01*
X110090476Y-61204761D01*
X110138095Y-61109523D01*
X110852380Y-62109523D02*
X109852380Y-62109523D01*
X110566666Y-62442857D01*
X109852380Y-62776190D01*
X110852380Y-62776190D01*
X110804761Y-63633333D02*
X110852380Y-63538095D01*
X110852380Y-63347619D01*
X110804761Y-63252380D01*
X110709523Y-63204761D01*
X110328571Y-63204761D01*
X110233333Y-63252380D01*
X110185714Y-63347619D01*
X110185714Y-63538095D01*
X110233333Y-63633333D01*
X110328571Y-63680952D01*
X110423809Y-63680952D01*
X110519047Y-63204761D01*
X110852380Y-64109523D02*
X110185714Y-64109523D01*
X110376190Y-64109523D02*
X110280952Y-64157142D01*
X110233333Y-64204761D01*
X110185714Y-64300000D01*
X110185714Y-64395238D01*
X110852380Y-64871428D02*
X110804761Y-64776190D01*
X110709523Y-64728571D01*
X109852380Y-64728571D01*
X110852380Y-65252380D02*
X110185714Y-65252380D01*
X109852380Y-65252380D02*
X109900000Y-65204761D01*
X109947619Y-65252380D01*
X109900000Y-65300000D01*
X109852380Y-65252380D01*
X109947619Y-65252380D01*
X110185714Y-65728571D02*
X110852380Y-65728571D01*
X110280952Y-65728571D02*
X110233333Y-65776190D01*
X110185714Y-65871428D01*
X110185714Y-66014285D01*
X110233333Y-66109523D01*
X110328571Y-66157142D01*
X110852380Y-66157142D01*
X109804761Y-67347619D02*
X111090476Y-66490476D01*
X109852380Y-67538095D02*
X109852380Y-68109523D01*
X110852380Y-67823809D02*
X109852380Y-67823809D01*
X109947619Y-68395238D02*
X109900000Y-68442857D01*
X109852380Y-68538095D01*
X109852380Y-68776190D01*
X109900000Y-68871428D01*
X109947619Y-68919047D01*
X110042857Y-68966666D01*
X110138095Y-68966666D01*
X110280952Y-68919047D01*
X110852380Y-68347619D01*
X110852380Y-68966666D01*
X110804761Y-69347619D02*
X110852380Y-69490476D01*
X110852380Y-69728571D01*
X110804761Y-69823809D01*
X110757142Y-69871428D01*
X110661904Y-69919047D01*
X110566666Y-69919047D01*
X110471428Y-69871428D01*
X110423809Y-69823809D01*
X110376190Y-69728571D01*
X110328571Y-69538095D01*
X110280952Y-69442857D01*
X110233333Y-69395238D01*
X110138095Y-69347619D01*
X110042857Y-69347619D01*
X109947619Y-69395238D01*
X109900000Y-69442857D01*
X109852380Y-69538095D01*
X109852380Y-69776190D01*
X109900000Y-69919047D01*
X110757142Y-70919047D02*
X110804761Y-70871428D01*
X110852380Y-70728571D01*
X110852380Y-70633333D01*
X110804761Y-70490476D01*
X110709523Y-70395238D01*
X110614285Y-70347619D01*
X110423809Y-70300000D01*
X110280952Y-70300000D01*
X110090476Y-70347619D01*
X109995238Y-70395238D01*
X109900000Y-70490476D01*
X109852380Y-70633333D01*
X109852380Y-70728571D01*
X109900000Y-70871428D01*
X109947619Y-70919047D01*
X109804761Y-72061904D02*
X111090476Y-71204761D01*
X132333095Y-89547619D02*
X132285476Y-89500000D01*
X132190238Y-89452380D01*
X131952142Y-89452380D01*
X131856904Y-89500000D01*
X131809285Y-89547619D01*
X131761666Y-89642857D01*
X131761666Y-89738095D01*
X131809285Y-89880952D01*
X132380714Y-90452380D01*
X131761666Y-90452380D01*
X130666428Y-90452380D02*
X130142619Y-89785714D01*
X130666428Y-89785714D02*
X130142619Y-90452380D01*
X129047380Y-89547619D02*
X128999761Y-89500000D01*
X128904523Y-89452380D01*
X128666428Y-89452380D01*
X128571190Y-89500000D01*
X128523571Y-89547619D01*
X128475952Y-89642857D01*
X128475952Y-89738095D01*
X128523571Y-89880952D01*
X129095000Y-90452380D01*
X128475952Y-90452380D01*
X127856904Y-89452380D02*
X127761666Y-89452380D01*
X127666428Y-89500000D01*
X127618809Y-89547619D01*
X127571190Y-89642857D01*
X127523571Y-89833333D01*
X127523571Y-90071428D01*
X127571190Y-90261904D01*
X127618809Y-90357142D01*
X127666428Y-90404761D01*
X127761666Y-90452380D01*
X127856904Y-90452380D01*
X127952142Y-90404761D01*
X127999761Y-90357142D01*
X128047380Y-90261904D01*
X128095000Y-90071428D01*
X128095000Y-89833333D01*
X128047380Y-89642857D01*
X127999761Y-89547619D01*
X127952142Y-89500000D01*
X127856904Y-89452380D01*
X126333095Y-89785714D02*
X126333095Y-90785714D01*
X126333095Y-89833333D02*
X126237857Y-89785714D01*
X126047380Y-89785714D01*
X125952142Y-89833333D01*
X125904523Y-89880952D01*
X125856904Y-89976190D01*
X125856904Y-90261904D01*
X125904523Y-90357142D01*
X125952142Y-90404761D01*
X126047380Y-90452380D01*
X126237857Y-90452380D01*
X126333095Y-90404761D01*
X125428333Y-90452380D02*
X125428333Y-89785714D01*
X125428333Y-89452380D02*
X125475952Y-89500000D01*
X125428333Y-89547619D01*
X125380714Y-89500000D01*
X125428333Y-89452380D01*
X125428333Y-89547619D01*
X124952142Y-89785714D02*
X124952142Y-90452380D01*
X124952142Y-89880952D02*
X124904523Y-89833333D01*
X124809285Y-89785714D01*
X124666428Y-89785714D01*
X124571190Y-89833333D01*
X124523571Y-89928571D01*
X124523571Y-90452380D01*
X123285476Y-90452380D02*
X123285476Y-89452380D01*
X122856904Y-90452380D02*
X122856904Y-89928571D01*
X122904523Y-89833333D01*
X122999761Y-89785714D01*
X123142619Y-89785714D01*
X123237857Y-89833333D01*
X123285476Y-89880952D01*
X121999761Y-90404761D02*
X122095000Y-90452380D01*
X122285476Y-90452380D01*
X122380714Y-90404761D01*
X122428333Y-90309523D01*
X122428333Y-89928571D01*
X122380714Y-89833333D01*
X122285476Y-89785714D01*
X122095000Y-89785714D01*
X121999761Y-89833333D01*
X121952142Y-89928571D01*
X121952142Y-90023809D01*
X122428333Y-90119047D01*
X121095000Y-90452380D02*
X121095000Y-89928571D01*
X121142619Y-89833333D01*
X121237857Y-89785714D01*
X121428333Y-89785714D01*
X121523571Y-89833333D01*
X121095000Y-90404761D02*
X121190238Y-90452380D01*
X121428333Y-90452380D01*
X121523571Y-90404761D01*
X121571190Y-90309523D01*
X121571190Y-90214285D01*
X121523571Y-90119047D01*
X121428333Y-90071428D01*
X121190238Y-90071428D01*
X121095000Y-90023809D01*
X120190238Y-90452380D02*
X120190238Y-89452380D01*
X120190238Y-90404761D02*
X120285476Y-90452380D01*
X120475952Y-90452380D01*
X120571190Y-90404761D01*
X120618809Y-90357142D01*
X120666428Y-90261904D01*
X120666428Y-89976190D01*
X120618809Y-89880952D01*
X120571190Y-89833333D01*
X120475952Y-89785714D01*
X120285476Y-89785714D01*
X120190238Y-89833333D01*
X119333095Y-90404761D02*
X119428333Y-90452380D01*
X119618809Y-90452380D01*
X119714047Y-90404761D01*
X119761666Y-90309523D01*
X119761666Y-89928571D01*
X119714047Y-89833333D01*
X119618809Y-89785714D01*
X119428333Y-89785714D01*
X119333095Y-89833333D01*
X119285476Y-89928571D01*
X119285476Y-90023809D01*
X119761666Y-90119047D01*
X118856904Y-90452380D02*
X118856904Y-89785714D01*
X118856904Y-89976190D02*
X118809285Y-89880952D01*
X118761666Y-89833333D01*
X118666428Y-89785714D01*
X118571190Y-89785714D01*
X118285476Y-90404761D02*
X118190238Y-90452380D01*
X117999761Y-90452380D01*
X117904523Y-90404761D01*
X117856904Y-90309523D01*
X117856904Y-90261904D01*
X117904523Y-90166666D01*
X117999761Y-90119047D01*
X118142619Y-90119047D01*
X118237857Y-90071428D01*
X118285476Y-89976190D01*
X118285476Y-89928571D01*
X118237857Y-89833333D01*
X118142619Y-89785714D01*
X117999761Y-89785714D01*
X117904523Y-89833333D01*
X128452142Y-91062380D02*
X127880714Y-91062380D01*
X128166428Y-92062380D02*
X128166428Y-91062380D01*
X127547380Y-92062380D02*
X127547380Y-91062380D01*
X127118809Y-92062380D02*
X127118809Y-91538571D01*
X127166428Y-91443333D01*
X127261666Y-91395714D01*
X127404523Y-91395714D01*
X127499761Y-91443333D01*
X127547380Y-91490952D01*
X126642619Y-92062380D02*
X126642619Y-91395714D01*
X126642619Y-91062380D02*
X126690238Y-91110000D01*
X126642619Y-91157619D01*
X126595000Y-91110000D01*
X126642619Y-91062380D01*
X126642619Y-91157619D01*
X126214047Y-92014761D02*
X126118809Y-92062380D01*
X125928333Y-92062380D01*
X125833095Y-92014761D01*
X125785476Y-91919523D01*
X125785476Y-91871904D01*
X125833095Y-91776666D01*
X125928333Y-91729047D01*
X126071190Y-91729047D01*
X126166428Y-91681428D01*
X126214047Y-91586190D01*
X126214047Y-91538571D01*
X126166428Y-91443333D01*
X126071190Y-91395714D01*
X125928333Y-91395714D01*
X125833095Y-91443333D01*
X124642619Y-92014761D02*
X124499761Y-92062380D01*
X124261666Y-92062380D01*
X124166428Y-92014761D01*
X124118809Y-91967142D01*
X124071190Y-91871904D01*
X124071190Y-91776666D01*
X124118809Y-91681428D01*
X124166428Y-91633809D01*
X124261666Y-91586190D01*
X124452142Y-91538571D01*
X124547380Y-91490952D01*
X124595000Y-91443333D01*
X124642619Y-91348095D01*
X124642619Y-91252857D01*
X124595000Y-91157619D01*
X124547380Y-91110000D01*
X124452142Y-91062380D01*
X124214047Y-91062380D01*
X124071190Y-91110000D01*
X123642619Y-92062380D02*
X123642619Y-91395714D01*
X123642619Y-91062380D02*
X123690238Y-91110000D01*
X123642619Y-91157619D01*
X123595000Y-91110000D01*
X123642619Y-91062380D01*
X123642619Y-91157619D01*
X122737857Y-92062380D02*
X122737857Y-91062380D01*
X122737857Y-92014761D02*
X122833095Y-92062380D01*
X123023571Y-92062380D01*
X123118809Y-92014761D01*
X123166428Y-91967142D01*
X123214047Y-91871904D01*
X123214047Y-91586190D01*
X123166428Y-91490952D01*
X123118809Y-91443333D01*
X123023571Y-91395714D01*
X122833095Y-91395714D01*
X122737857Y-91443333D01*
X121880714Y-92014761D02*
X121975952Y-92062380D01*
X122166428Y-92062380D01*
X122261666Y-92014761D01*
X122309285Y-91919523D01*
X122309285Y-91538571D01*
X122261666Y-91443333D01*
X122166428Y-91395714D01*
X121975952Y-91395714D01*
X121880714Y-91443333D01*
X121833095Y-91538571D01*
X121833095Y-91633809D01*
X122309285Y-91729047D01*
%TO.C,J2*%
X131730000Y-87717380D02*
X131158571Y-87717380D01*
X131444285Y-88717380D02*
X131444285Y-87717380D01*
X130825238Y-88193571D02*
X130491904Y-88193571D01*
X130349047Y-88717380D02*
X130825238Y-88717380D01*
X130825238Y-87717380D01*
X130349047Y-87717380D01*
X129349047Y-88622142D02*
X129396666Y-88669761D01*
X129539523Y-88717380D01*
X129634761Y-88717380D01*
X129777619Y-88669761D01*
X129872857Y-88574523D01*
X129920476Y-88479285D01*
X129968095Y-88288809D01*
X129968095Y-88145952D01*
X129920476Y-87955476D01*
X129872857Y-87860238D01*
X129777619Y-87765000D01*
X129634761Y-87717380D01*
X129539523Y-87717380D01*
X129396666Y-87765000D01*
X129349047Y-87812619D01*
X127587142Y-88622142D02*
X127634761Y-88669761D01*
X127777619Y-88717380D01*
X127872857Y-88717380D01*
X128015714Y-88669761D01*
X128110952Y-88574523D01*
X128158571Y-88479285D01*
X128206190Y-88288809D01*
X128206190Y-88145952D01*
X128158571Y-87955476D01*
X128110952Y-87860238D01*
X128015714Y-87765000D01*
X127872857Y-87717380D01*
X127777619Y-87717380D01*
X127634761Y-87765000D01*
X127587142Y-87812619D01*
X127158571Y-88717380D02*
X127158571Y-87717380D01*
X126777619Y-87717380D01*
X126682380Y-87765000D01*
X126634761Y-87812619D01*
X126587142Y-87907857D01*
X126587142Y-88050714D01*
X126634761Y-88145952D01*
X126682380Y-88193571D01*
X126777619Y-88241190D01*
X127158571Y-88241190D01*
X126158571Y-87717380D02*
X126158571Y-88526904D01*
X126110952Y-88622142D01*
X126063333Y-88669761D01*
X125968095Y-88717380D01*
X125777619Y-88717380D01*
X125682380Y-88669761D01*
X125634761Y-88622142D01*
X125587142Y-88526904D01*
X125587142Y-87717380D01*
X124396666Y-88669761D02*
X124253809Y-88717380D01*
X124015714Y-88717380D01*
X123920476Y-88669761D01*
X123872857Y-88622142D01*
X123825238Y-88526904D01*
X123825238Y-88431666D01*
X123872857Y-88336428D01*
X123920476Y-88288809D01*
X124015714Y-88241190D01*
X124206190Y-88193571D01*
X124301428Y-88145952D01*
X124349047Y-88098333D01*
X124396666Y-88003095D01*
X124396666Y-87907857D01*
X124349047Y-87812619D01*
X124301428Y-87765000D01*
X124206190Y-87717380D01*
X123968095Y-87717380D01*
X123825238Y-87765000D01*
X123253809Y-88717380D02*
X123349047Y-88669761D01*
X123396666Y-88622142D01*
X123444285Y-88526904D01*
X123444285Y-88241190D01*
X123396666Y-88145952D01*
X123349047Y-88098333D01*
X123253809Y-88050714D01*
X123110952Y-88050714D01*
X123015714Y-88098333D01*
X122968095Y-88145952D01*
X122920476Y-88241190D01*
X122920476Y-88526904D01*
X122968095Y-88622142D01*
X123015714Y-88669761D01*
X123110952Y-88717380D01*
X123253809Y-88717380D01*
X122063333Y-88669761D02*
X122158571Y-88717380D01*
X122349047Y-88717380D01*
X122444285Y-88669761D01*
X122491904Y-88622142D01*
X122539523Y-88526904D01*
X122539523Y-88241190D01*
X122491904Y-88145952D01*
X122444285Y-88098333D01*
X122349047Y-88050714D01*
X122158571Y-88050714D01*
X122063333Y-88098333D01*
X121634761Y-88717380D02*
X121634761Y-87717380D01*
X121539523Y-88336428D02*
X121253809Y-88717380D01*
X121253809Y-88050714D02*
X121634761Y-88431666D01*
X120444285Y-88669761D02*
X120539523Y-88717380D01*
X120730000Y-88717380D01*
X120825238Y-88669761D01*
X120872857Y-88574523D01*
X120872857Y-88193571D01*
X120825238Y-88098333D01*
X120730000Y-88050714D01*
X120539523Y-88050714D01*
X120444285Y-88098333D01*
X120396666Y-88193571D01*
X120396666Y-88288809D01*
X120872857Y-88384047D01*
X120110952Y-88050714D02*
X119730000Y-88050714D01*
X119968095Y-87717380D02*
X119968095Y-88574523D01*
X119920476Y-88669761D01*
X119825238Y-88717380D01*
X119730000Y-88717380D01*
D11*
X119270000Y-35500000D02*
X119270000Y-86420000D01*
X134680000Y-86480000D02*
X134680000Y-35440000D01*
X134680000Y-86480000D02*
X132190000Y-86480000D01*
X134680000Y-35440000D02*
X132190000Y-35440000D01*
X116780000Y-86480000D02*
X119270000Y-86480000D01*
X116810000Y-35440000D02*
X119270000Y-35440000D01*
X116780000Y-35440000D02*
X116780000Y-86480000D01*
X132190000Y-86420000D02*
X132190000Y-35500000D01*
%TD*%
M02*
