%TF.GenerationSoftware,KiCad,Pcbnew,(6.0.9)*%
%TF.CreationDate,2022-11-13T11:09:17+10:30*%
%TF.ProjectId,TEC-SC IO Port,5445432d-5343-4204-994f-20506f72742e,rev?*%
%TF.SameCoordinates,Original*%
%TF.FileFunction,Soldermask,Bot*%
%TF.FilePolarity,Negative*%
%FSLAX46Y46*%
G04 Gerber Fmt 4.6, Leading zero omitted, Abs format (unit mm)*
G04 Created by KiCad (PCBNEW (6.0.9)) date 2022-11-13 11:09:17*
%MOMM*%
%LPD*%
G01*
G04 APERTURE LIST*
G04 Aperture macros list*
%AMRoundRect*
0 Rectangle with rounded corners*
0 $1 Rounding radius*
0 $2 $3 $4 $5 $6 $7 $8 $9 X,Y pos of 4 corners*
0 Add a 4 corners polygon primitive as box body*
4,1,4,$2,$3,$4,$5,$6,$7,$8,$9,$2,$3,0*
0 Add four circle primitives for the rounded corners*
1,1,$1+$1,$2,$3*
1,1,$1+$1,$4,$5*
1,1,$1+$1,$6,$7*
1,1,$1+$1,$8,$9*
0 Add four rect primitives between the rounded corners*
20,1,$1+$1,$2,$3,$4,$5,0*
20,1,$1+$1,$4,$5,$6,$7,0*
20,1,$1+$1,$6,$7,$8,$9,0*
20,1,$1+$1,$8,$9,$2,$3,0*%
G04 Aperture macros list end*
%ADD10R,1.600000X1.600000*%
%ADD11O,1.600000X1.600000*%
%ADD12C,1.600000*%
%ADD13RoundRect,0.250000X-0.600000X-0.600000X0.600000X-0.600000X0.600000X0.600000X-0.600000X0.600000X0*%
%ADD14C,1.700000*%
G04 APERTURE END LIST*
D10*
%TO.C,U1*%
X129545000Y-85085000D03*
D11*
X129545000Y-82545000D03*
X129545000Y-80005000D03*
X129545000Y-77465000D03*
X129545000Y-74925000D03*
X129545000Y-72385000D03*
X129545000Y-69845000D03*
X129545000Y-67305000D03*
X129545000Y-64765000D03*
X129545000Y-62225000D03*
X129545000Y-59685000D03*
X129545000Y-57145000D03*
X129545000Y-54605000D03*
X129545000Y-52065000D03*
X129545000Y-49525000D03*
X129545000Y-46985000D03*
X129545000Y-44445000D03*
X129545000Y-41905000D03*
X129545000Y-39365000D03*
X129545000Y-36825000D03*
X114305000Y-36825000D03*
X114305000Y-39365000D03*
X114305000Y-41905000D03*
X114305000Y-44445000D03*
X114305000Y-46985000D03*
X114305000Y-49525000D03*
X114305000Y-52065000D03*
X114305000Y-54605000D03*
X114305000Y-57145000D03*
X114305000Y-59685000D03*
X114305000Y-62225000D03*
X114305000Y-64765000D03*
X114305000Y-67305000D03*
X114305000Y-69845000D03*
X114305000Y-72385000D03*
X114305000Y-74925000D03*
X114305000Y-77465000D03*
X114305000Y-80005000D03*
X114305000Y-82545000D03*
X114305000Y-85085000D03*
%TD*%
D12*
%TO.C,C1*%
X124420000Y-31115000D03*
X119420000Y-31115000D03*
%TD*%
D13*
%TO.C,J1*%
X101600000Y-36195000D03*
D14*
X101600000Y-38735000D03*
X101600000Y-41275000D03*
X101600000Y-43815000D03*
X101600000Y-46355000D03*
X101600000Y-48895000D03*
X101600000Y-51435000D03*
X101600000Y-53975000D03*
X101600000Y-56515000D03*
X101600000Y-59055000D03*
X101600000Y-61595000D03*
X101600000Y-64135000D03*
X101600000Y-66675000D03*
X101600000Y-69215000D03*
X101600000Y-71755000D03*
X101600000Y-74295000D03*
X101600000Y-76835000D03*
X101600000Y-79375000D03*
X101600000Y-81915000D03*
X101600000Y-84455000D03*
X104140000Y-84455000D03*
X104140000Y-81915000D03*
X104140000Y-79375000D03*
X104140000Y-76835000D03*
X104140000Y-74295000D03*
X104140000Y-71755000D03*
X104140000Y-69215000D03*
X104140000Y-66675000D03*
X104140000Y-64135000D03*
X104140000Y-61595000D03*
X104140000Y-59055000D03*
X104140000Y-56515000D03*
X104140000Y-53975000D03*
X104140000Y-51435000D03*
X104140000Y-48895000D03*
X104140000Y-46355000D03*
X104140000Y-43815000D03*
X104140000Y-41275000D03*
X104140000Y-38735000D03*
X104140000Y-36195000D03*
%TD*%
D10*
%TO.C,J2*%
X133350000Y-85090000D03*
D11*
X133350000Y-82550000D03*
X133350000Y-80010000D03*
X133350000Y-77470000D03*
X133350000Y-74930000D03*
X133350000Y-72390000D03*
X133350000Y-69850000D03*
X133350000Y-67310000D03*
X133350000Y-64770000D03*
X133350000Y-62230000D03*
X133350000Y-59690000D03*
X133350000Y-57150000D03*
X133350000Y-54610000D03*
X133350000Y-52070000D03*
X133350000Y-49530000D03*
X133350000Y-46990000D03*
X133350000Y-44450000D03*
X133350000Y-41910000D03*
X133350000Y-39370000D03*
X133350000Y-36830000D03*
X118110000Y-36830000D03*
X118110000Y-39370000D03*
X118110000Y-41910000D03*
X118110000Y-44450000D03*
X118110000Y-46990000D03*
X118110000Y-49530000D03*
X118110000Y-52070000D03*
X118110000Y-54610000D03*
X118110000Y-57150000D03*
X118110000Y-59690000D03*
X118110000Y-62230000D03*
X118110000Y-64770000D03*
X118110000Y-67310000D03*
X118110000Y-69850000D03*
X118110000Y-72390000D03*
X118110000Y-74930000D03*
X118110000Y-77470000D03*
X118110000Y-80010000D03*
X118110000Y-82550000D03*
X118110000Y-85090000D03*
%TD*%
M02*
