M48
; DRILL file {KiCad (6.0.9)} date Sun Nov 13 11:09:22 2022
; FORMAT={-:-/ absolute / inch / decimal}
; #@! TF.CreationDate,2022-11-13T11:09:22+10:30
; #@! TF.GenerationSoftware,Kicad,Pcbnew,(6.0.9)
; #@! TF.FileFunction,Plated,1,2,PTH
FMAT,2
INCH
; #@! TA.AperFunction,Plated,PTH,ViaDrill
T1C0.0157
; #@! TA.AperFunction,Plated,PTH,ComponentDrill
T2C0.0315
; #@! TA.AperFunction,Plated,PTH,ComponentDrill
T3C0.0394
%
G90
G05
T1
X4.2719Y-1.8716
X4.38Y-2.4101
X4.3898Y-1.2244
X4.5505Y-2.32
X4.7557Y-2.0596
X4.7953Y-2.7205
X4.7953Y-2.9921
X4.8465Y-2.248
X4.9038Y-2.2129
X4.9803Y-2.5669
T2
X4.5002Y-1.4498
X4.5002Y-1.5498
X4.5002Y-1.6498
X4.5002Y-1.7498
X4.5002Y-1.8498
X4.5002Y-1.9498
X4.5002Y-2.0498
X4.5002Y-2.1498
X4.5002Y-2.2498
X4.5002Y-2.3498
X4.5002Y-2.4498
X4.5002Y-2.5498
X4.5002Y-2.6498
X4.5002Y-2.7498
X4.5002Y-2.8498
X4.5002Y-2.9498
X4.5002Y-3.0498
X4.5002Y-3.1498
X4.5002Y-3.2498
X4.5002Y-3.3498
X4.65Y-1.45
X4.65Y-1.55
X4.65Y-1.65
X4.65Y-1.75
X4.65Y-1.85
X4.65Y-1.95
X4.65Y-2.05
X4.65Y-2.15
X4.65Y-2.25
X4.65Y-2.35
X4.65Y-2.45
X4.65Y-2.55
X4.65Y-2.65
X4.65Y-2.75
X4.65Y-2.85
X4.65Y-2.95
X4.65Y-3.05
X4.65Y-3.15
X4.65Y-3.25
X4.65Y-3.35
X4.7016Y-1.225
X4.8984Y-1.225
X5.1002Y-1.4498
X5.1002Y-1.5498
X5.1002Y-1.6498
X5.1002Y-1.7498
X5.1002Y-1.8498
X5.1002Y-1.9498
X5.1002Y-2.0498
X5.1002Y-2.1498
X5.1002Y-2.2498
X5.1002Y-2.3498
X5.1002Y-2.4498
X5.1002Y-2.5498
X5.1002Y-2.6498
X5.1002Y-2.7498
X5.1002Y-2.8498
X5.1002Y-2.9498
X5.1002Y-3.0498
X5.1002Y-3.1498
X5.1002Y-3.2498
X5.1002Y-3.3498
X5.25Y-1.45
X5.25Y-1.55
X5.25Y-1.65
X5.25Y-1.75
X5.25Y-1.85
X5.25Y-1.95
X5.25Y-2.05
X5.25Y-2.15
X5.25Y-2.25
X5.25Y-2.35
X5.25Y-2.45
X5.25Y-2.55
X5.25Y-2.65
X5.25Y-2.75
X5.25Y-2.85
X5.25Y-2.95
X5.25Y-3.05
X5.25Y-3.15
X5.25Y-3.25
X5.25Y-3.35
T3
X4.0Y-1.425
X4.0Y-1.525
X4.0Y-1.625
X4.0Y-1.725
X4.0Y-1.825
X4.0Y-1.925
X4.0Y-2.025
X4.0Y-2.125
X4.0Y-2.225
X4.0Y-2.325
X4.0Y-2.425
X4.0Y-2.525
X4.0Y-2.625
X4.0Y-2.725
X4.0Y-2.825
X4.0Y-2.925
X4.0Y-3.025
X4.0Y-3.125
X4.0Y-3.225
X4.0Y-3.325
X4.1Y-1.425
X4.1Y-1.525
X4.1Y-1.625
X4.1Y-1.725
X4.1Y-1.825
X4.1Y-1.925
X4.1Y-2.025
X4.1Y-2.125
X4.1Y-2.225
X4.1Y-2.325
X4.1Y-2.425
X4.1Y-2.525
X4.1Y-2.625
X4.1Y-2.725
X4.1Y-2.825
X4.1Y-2.925
X4.1Y-3.025
X4.1Y-3.125
X4.1Y-3.225
X4.1Y-3.325
T0
M30
